<svg width="60" height="39" viewBox="0 0 60 39" fill="none" xmlns="http://www.w3.org/2000/svg">
<path fill-rule="evenodd" clip-rule="evenodd" d="M8.24016 9.76584C8.1572 9.75577 8.07371 9.75048 7.99012 9.75H6.03608C5.52587 9.74544 5.03253 9.92797 4.65391 10.2614C4.2753 10.5948 4.03905 11.0548 3.99203 11.5501C3.96982 11.8288 4.0096 12.1088 4.10864 12.3711C4.20767 12.6334 4.36364 12.8717 4.56586 13.0699C4.61425 13.1188 4.65029 13.1781 4.67116 13.243C4.69203 13.3078 4.69715 13.3765 4.68612 13.4437C4.67509 13.5108 4.6482 13.5745 4.60759 13.6298C4.56698 13.685 4.51375 13.7303 4.4521 13.7621L4.44259 13.7671C3.35592 14.3405 2.32493 14.8846 1.68794 15.7121L1.68563 15.7151C1.40384 16.083 0.666554 17.0455 0.216475 21.957C-0.0335617 24.7284 -0.0710671 27.5974 0.125212 29.445C0.536522 33.2841 1.30789 35.6046 1.34039 35.7008C1.45876 36.0512 1.67664 36.3617 1.96874 36.5962C2.26085 36.8307 2.61519 36.9796 2.99063 37.0256V37.05C2.99063 37.5672 3.20138 38.0632 3.57651 38.4289C3.95163 38.7946 4.46042 39 4.99093 39H11.992C12.5225 39 13.0313 38.7946 13.4064 38.4289C13.7815 38.0632 13.9923 37.5672 13.9923 37.05C15.0687 37.05 15.8175 36.8623 16.6114 36.6624C17.7575 36.3614 18.9291 36.1611 20.1119 36.064C23.9262 35.7094 27.7193 35.5875 29.9959 35.5875C32.2262 35.5875 36.1868 35.7094 40.0073 36.064C41.1948 36.1613 42.371 36.3624 43.5216 36.6649C44.2817 36.855 45.0031 37.0305 46.002 37.0488C46.002 37.566 46.2127 38.0619 46.5878 38.4276C46.963 38.7933 47.4717 38.9988 48.0023 38.9988H55.0033C55.5338 38.9988 56.0426 38.7933 56.4177 38.4276C56.7928 38.0619 57.0036 37.566 57.0036 37.0488V37.0342C57.3799 36.989 57.7353 36.8405 58.0284 36.6059C58.3214 36.3714 58.5401 36.0604 58.6588 35.7094C58.6913 35.6131 59.4627 33.2926 59.874 29.4535C60.0703 27.6047 60.0353 24.7406 59.7827 21.9643C59.3327 17.0393 58.5913 16.0802 58.3113 15.7194C57.6674 14.8858 56.6373 14.341 55.5471 13.7694C55.4855 13.7377 55.4322 13.6923 55.3916 13.6371C55.351 13.5818 55.3241 13.5181 55.3131 13.451C55.3021 13.3839 55.3072 13.3151 55.328 13.2503C55.3489 13.1854 55.385 13.1262 55.4333 13.0772C55.6352 12.8776 55.7904 12.6377 55.8882 12.3741C55.9859 12.1105 56.024 11.8294 55.9997 11.5501C55.9527 11.0548 55.7164 10.5948 55.3378 10.2614C54.9592 9.92797 54.4658 9.74544 53.9556 9.75H52.0053C51.9217 9.75048 51.8383 9.75577 51.7553 9.76584C51.6984 9.74177 51.6394 9.7226 51.579 9.70856C50.4239 7.32838 48.8422 4.06931 45.5644 2.47894C40.7024 0.121875 31.7461 0 29.9959 0C28.2456 0 19.2893 0.121875 14.4336 2.47528C11.1558 4.06566 9.57429 7.3243 8.41914 9.70448L8.40893 9.72441C8.35132 9.73231 8.29474 9.7462 8.24016 9.76584ZM14.8697 3.37516C11.9485 4.7927 10.4953 7.71682 9.31858 10.1415L9.31375 10.1515L9.06093 10.6444L8.56215 10.7128L8.35538 10.7872L8.11964 10.7586C8.07556 10.7532 8.03118 10.7503 7.98673 10.75H6.02714C5.76023 10.7476 5.50621 10.8433 5.31482 11.0119C5.12615 11.178 5.01259 11.4017 4.98831 11.637C4.97913 11.7658 4.99795 11.8955 5.04417 12.0179C5.09131 12.1427 5.1663 12.2582 5.26569 12.3556L5.27149 12.3612L5.27719 12.367C5.43459 12.5263 5.55373 12.721 5.62311 12.9367C5.69253 13.1525 5.70971 13.3817 5.67288 13.6058C5.63606 13.8299 5.5466 14.0407 5.41341 14.2219C5.28153 14.4014 5.11071 14.5466 4.9157 14.6482C3.7715 15.252 2.95932 15.6999 2.48038 16.3221C2.47666 16.3269 2.47232 16.3323 2.46739 16.3385C2.31954 16.5233 1.64091 17.3717 1.21236 22.0476C0.965579 24.7834 0.932845 27.5805 1.11955 29.3388C1.52098 33.0853 2.27144 35.3323 2.28779 35.3808C2.34426 35.5479 2.44942 35.6997 2.59476 35.8164C2.74033 35.9332 2.91962 36.0094 3.11236 36.0331L3.99063 36.1408V37.05C3.99063 37.2936 4.08967 37.5326 4.27455 37.7128C4.4603 37.8939 4.71753 38 4.99093 38H11.992C12.2654 38 12.5226 37.8939 12.7083 37.7128C12.8932 37.5326 12.9923 37.2936 12.9923 37.05V36.05H13.9923C14.9342 36.05 15.5798 35.8909 16.3624 35.6939C17.5617 35.3792 18.7874 35.1697 20.0248 35.0678C23.8714 34.7104 27.6931 34.5875 29.9959 34.5875C32.2512 34.5875 36.2403 34.7103 40.0944 35.0678C41.3362 35.1699 42.5663 35.3802 43.77 35.6962C44.5176 35.8832 45.1446 36.0329 46.0203 36.049L47.002 36.0669V37.0488C47.002 37.2924 47.101 37.5314 47.2859 37.7116C47.4716 37.8927 47.7289 37.9988 48.0023 37.9988H55.0033C55.2767 37.9988 55.5339 37.8927 55.7197 37.7116C55.9045 37.5314 56.0036 37.2924 56.0036 37.0488V36.147L56.8844 36.0413C57.0776 36.0181 57.2575 35.9421 57.4035 35.8252C57.5494 35.7085 57.6549 35.5565 57.7115 35.389C57.7309 35.3315 58.479 33.0863 58.8796 29.348M52.0087 10.75C51.9643 10.7503 51.9199 10.7532 51.8758 10.7586L51.6113 10.7907L51.3658 10.6869C51.3617 10.6851 51.3573 10.6837 51.3525 10.6826L50.8877 10.5745L50.6794 10.1452C49.5026 7.72045 48.0494 4.7963 45.1282 3.37877C42.8624 2.28032 39.5547 1.67312 36.5078 1.34999C33.4906 1.03003 30.8525 1 29.9959 1C29.1392 1 26.501 1.03003 23.4846 1.34955C20.4385 1.67222 17.1323 2.27867 14.8697 3.37516M52.0087 10.75L53.9556 10.75L53.9646 10.75C54.2315 10.7476 54.4855 10.8433 54.6769 11.0119C54.8665 11.1789 54.9803 11.404 55.0038 11.6407C55.0145 11.7709 54.9966 11.9023 54.9506 12.0264C54.904 12.1519 54.8295 12.268 54.7303 12.3661L54.722 12.3743C54.5646 12.5336 54.4455 12.7283 54.3761 12.944C54.3067 13.1598 54.2895 13.3891 54.3263 13.6131C54.3631 13.8372 54.4526 14.048 54.5858 14.2292C54.7175 14.4085 54.8881 14.5535 55.0828 14.6551C56.2232 15.2531 57.035 15.703 57.5198 16.3307L57.5213 16.3326C57.525 16.3374 57.5294 16.3428 57.5345 16.3491C57.6763 16.5243 58.3584 17.3672 58.7868 22.0549M11.1283 10.949L11.1339 10.9374C11.6288 9.91223 12.1961 8.73883 12.9119 7.69701C13.6305 6.65101 14.5456 5.66569 15.7785 5.06736C17.3979 4.28136 19.7884 3.74725 22.2969 3.40462C24.8315 3.05844 27.5864 2.89512 29.9959 2.89512C32.405 2.89512 35.1599 3.05718 37.6946 3.40276C40.2024 3.74468 42.5931 4.27865 44.2133 5.06736M11.1283 10.949L11.123 10.9608ZM12.0345 11.3722C13.0346 9.30028 14.1785 6.95541 16.2151 5.967C19.158 4.53863 25.2577 3.89512 29.9959 3.89512C34.7341 3.89512 40.8337 4.53375 43.7766 5.967C45.8132 6.95541 46.9521 9.3015 47.9572 11.3722L48.0823 11.6366C48.1554 11.7872 48.1877 11.9535 48.1761 12.1197C48.1646 12.2859 48.1095 12.4464 48.0163 12.586C47.923 12.7256 47.7946 12.8395 47.6433 12.917C47.4921 12.9944 47.3229 13.0328 47.1521 13.0284C45.8779 12.9948 44.1713 12.9385 42.2947 12.8765C38.0529 12.7365 32.9428 12.5677 29.9959 12.5677C27.0825 12.5677 22.0547 12.7367 17.84 12.8782C15.9055 12.9432 14.1422 13.0025 12.8333 13.037C12.6625 13.0413 12.4934 13.0029 12.3421 12.9255C12.1909 12.848 12.0625 12.7341 11.9692 12.5945C11.8759 12.455 11.8209 12.2944 11.8093 12.1282C11.7978 11.962 11.8301 11.7957 11.9032 11.6452C11.9152 11.6203 11.9275 11.5954 11.9398 11.5704C11.9721 11.5046 12.0046 11.4384 12.0345 11.3722ZM11.0035 11.2086C11.0207 11.1732 11.0357 11.1426 11.0492 11.1151C11.078 11.0566 11.1001 11.0115 11.123 10.9608M11.0035 11.2086C10.8545 11.5156 10.788 11.8562 10.8117 12.1976C10.8355 12.539 10.9485 12.8669 11.1378 13.1502C11.3269 13.4332 11.5854 13.6615 11.8864 13.8156C12.1872 13.9696 12.5219 14.0452 12.8588 14.0366C14.1842 14.0017 15.961 13.942 17.9039 13.8767C22.1101 13.7354 27.0992 13.5677 29.9959 13.5677C32.9259 13.5677 37.9989 13.7353 42.2332 13.8751C44.1178 13.9373 45.8363 13.994 47.1257 14.0281C47.4626 14.0367 47.7982 13.9611 48.0991 13.8071C48.4001 13.653 48.6585 13.4247 48.8477 13.1416C49.037 12.8584 49.15 12.5304 49.1737 12.189C49.1973 11.8496 49.1317 11.5108 48.9844 11.2052C48.9836 11.2034 48.9827 11.2016 48.9818 11.1998L48.8613 10.9448L48.8421 10.905C48.3491 9.88938 47.7858 8.72887 47.0782 7.69789C46.3607 6.65237 45.4472 5.66659 44.2145 5.06795M4.86716 17.55C6.398 17.3204 7.29329 17.5785 9.61536 18.2478C9.75854 18.2891 9.90716 18.3319 10.0617 18.3763C11.8257 18.8821 13.0984 19.5561 13.8235 20.0899C14.1873 20.3531 13.9935 21.0405 13.5259 21.0771C11.3754 21.3294 9.21106 21.4539 7.04498 21.45C5.71978 21.45 4.35333 21.0844 4.09955 19.9339C3.92577 19.16 3.94452 18.7249 4.03829 18.2873C4.11705 17.9156 4.24207 17.6451 4.86716 17.55ZM3.12349 20.1514C3.33996 21.129 4.03632 21.7195 4.7705 22.0399C5.48329 22.351 6.30811 22.4498 7.04316 22.45C9.24381 22.454 11.4427 22.3278 13.6277 22.072C14.3734 22.0025 14.8047 21.4318 14.946 20.95C15.0861 20.4727 15.0378 19.7372 14.4136 19.2826C13.5778 18.6679 12.1944 17.9475 10.3373 17.415M3.12349 20.1514C2.92335 19.2594 2.93221 18.6771 3.06022 18.0791C3.10682 17.8593 3.20244 17.4647 3.52155 17.1276C3.85167 16.7787 4.28492 16.627 4.71681 16.5614L4.71884 16.5611C6.4715 16.2982 7.57546 16.6172 9.8185 17.2654C9.98492 17.3135 10.1576 17.3634 10.3373 17.415M41.2033 31.078C41.2222 31.0758 41.2412 31.0734 41.2602 31.0708C41.5728 31.0287 41.8944 30.9448 42.2025 30.8267C43.5544 30.3082 44.6455 29.13 43.5604 27.9289C42.8215 27.0965 40.4124 26.4006 37.2244 25.9362C34.0364 25.4719 32.8738 25.35 30.0209 25.35C27.4105 25.35 26.1053 25.5163 23.5608 25.8405C23.3243 25.8707 23.0772 25.9022 22.8173 25.935C19.7606 26.3213 17.4653 27.0087 16.4814 27.9277C15.0036 29.3219 17.1677 30.8868 18.8655 31.0708C20.1237 31.2106 22.3435 31.2043 26.1063 31.1936C27.2637 31.1903 28.5671 31.1866 30.0334 31.1866C31.4996 31.1866 32.803 31.1903 33.9605 31.1936C36.8785 31.2019 38.869 31.2076 40.2025 31.1445C40.5582 31.1277 40.8672 31.106 41.1346 31.0781C41.1572 31.0758 41.1796 31.0734 41.2017 31.0709C41.2019 31.0709 41.2014 31.0709 41.2017 31.0709L41.2033 31.078C41.2036 31.078 41.203 31.0781 41.2033 31.078ZM40.2025 32.1451V32.2037L41.3202 32.0712C42.3551 31.9485 43.5131 31.4513 44.2487 30.6755C44.6258 30.2778 44.9494 29.7428 44.9964 29.0943C45.0452 28.4221 44.7849 27.794 44.3052 27.2616C44.0002 26.9193 43.585 26.6524 43.1537 26.437C42.7096 26.2152 42.1843 26.0169 41.6047 25.8387C40.4452 25.4822 38.9913 25.183 37.3686 24.9467C34.1502 24.4779 32.9369 24.35 30.0209 24.35C27.3458 24.35 25.9852 24.5234 23.4381 24.8481C23.2004 24.8784 22.9523 24.91 22.6919 24.9429C21.1263 25.1408 19.7272 25.419 18.5755 25.7766C17.4486 26.1265 16.4562 26.5829 15.7988 27.1968L15.7951 27.2003C15.2593 27.7058 14.9497 28.3393 14.9937 29.0435C15.0352 29.7079 15.3814 30.2524 15.7634 30.6479C16.5139 31.4247 17.7052 31.9506 18.7566 32.0649M55.8924 19.9327C55.8924 19.9326 55.8924 19.9327 55.8924 19.9327C55.9002 19.8979 55.9075 19.863 55.9144 19.8281C56.023 19.2814 56.0362 18.7206 55.9534 18.1691C55.9334 17.9583 55.7634 17.6219 55.4421 17.5598C54.1244 17.305 52.5904 17.6109 49.93 18.3751C48.1685 18.8809 46.8821 19.5414 46.1682 20.0887C45.7807 20.386 45.9582 21.0405 46.3408 21.0758C48.5335 21.3248 50.7392 21.4493 52.9467 21.4488C54.2249 21.4488 55.5547 21.1106 55.8649 20.0405C55.875 20.0057 55.884 19.9702 55.8919 19.9339C55.8919 19.9339 55.8919 19.9339 55.8919 19.9339C55.892 19.9335 55.8924 19.933 55.8924 19.9327ZM56.8682 20.1505C56.6533 21.132 55.9535 21.7222 55.2192 22.0412C54.5049 22.3515 53.6787 22.4488 52.947 22.4488M45.5598 19.295C46.4002 18.6508 47.8103 17.9433 49.6541 17.4139C52.2814 16.6593 54.0432 16.2708 55.6319 16.5779C56.1063 16.6697 56.4307 16.9585 56.6221 17.2241C56.7993 17.4701 56.9126 17.7614 56.9454 18.0415C57.0483 18.7434 57.0219 19.4576 56.8682 20.1505M58.7868 22.0549C59.036 24.7943 59.0663 27.588 58.8796 29.348ZM52.947 22.4488C50.7043 22.4493 48.4632 22.3229 46.2356 22.0703C45.4535 21.9911 45.0824 21.3332 44.9877 20.8891C44.8823 20.395 44.9944 19.7289 45.5598 19.295" fill="#0066FF"/>
</svg>
