<svg width="60" height="42" viewBox="0 0 60 42" fill="none" xmlns="http://www.w3.org/2000/svg">
<path d="M9.75 0C7.16414 0 4.68419 1.02723 2.85571 2.85571C1.02723 4.68419 0 7.16414 0 9.75V13.5H60V9.75C60 8.46961 59.7478 7.20176 59.2578 6.01884C58.7678 4.83591 58.0497 3.76108 57.1443 2.85571C56.2389 1.95034 55.1641 1.23216 53.9812 0.742175C52.7982 0.252192 51.5304 0 50.25 0H9.75ZM60 18H0V32.25C0 34.8359 1.02723 37.3158 2.85571 39.1443C4.68419 40.9728 7.16414 42 9.75 42H50.25C51.5304 42 52.7982 41.7478 53.9812 41.2578C55.1641 40.7678 56.2389 40.0497 57.1443 39.1443C58.0497 38.2389 58.7678 37.1641 59.2578 35.9812C59.7478 34.7982 60 33.5304 60 32.25V18ZM41.25 28.5H48.75C49.3467 28.5 49.919 28.7371 50.341 29.159C50.7629 29.581 51 30.1533 51 30.75C51 31.3467 50.7629 31.919 50.341 32.341C49.919 32.7629 49.3467 33 48.75 33H41.25C40.6533 33 40.081 32.7629 39.659 32.341C39.2371 31.919 39 31.3467 39 30.75C39 30.1533 39.2371 29.581 39.659 29.159C40.081 28.7371 40.6533 28.5 41.25 28.5Z" fill="#0066FF"/>
</svg>
